<svg xmlns="http://www.w3.org/2000/svg" width="206" height="250" viewBox="0 0 206 250" fill="none">
  <path opacity="0.5" d="M153.473 28.908L129.51 72.4737C118.491 67.117 104.438 63.782 94.4296 66.5116L42.1613 80.7657L57.9284 138.582C59.7477 145.253 71.0692 164.862 100.792 168.701C124.569 171.773 142.782 153.268 148.916 143.632L191.375 167.889C185.308 185.073 141.833 231.57 82.7929 216.613C35.5611 204.647 14.6567 168.301 10.1085 151.623L-19 44.8855L74.4156 19.4099C112.227 9.09841 141.948 21.6983 153.473 28.908Z" fill="url(#paint0_linear_2539_25731)"/>
  <path opacity="0.5" d="M138.324 168.865C146.465 163.518 152.496 156.652 155.666 151.799L197.4 175.642C195.825 179.839 192.067 185.753 186.402 192.087C180.578 198.598 172.763 205.525 163.299 211.451C144.373 223.303 118.874 231.144 89.5051 223.704C42.469 211.788 21.6698 175.594 17.1562 159.043L-11.8296 52.7557L81.136 27.4029C118.384 17.2449 147.74 29.4184 159.449 36.6141L135.912 79.4045C130.467 76.7985 124.313 74.6875 118.275 73.545C112.094 72.3754 106.002 72.2145 100.905 73.6045L48.6362 87.8587L48.1862 87.9814L48.309 88.4314L64.0761 146.247C65.9397 153.081 77.4015 172.841 107.329 176.707C119.359 178.261 129.967 174.354 138.324 168.865Z" stroke="white" stroke-width="0.932894"/>
  <defs>
    <linearGradient id="paint0_linear_2539_25731" x1="34.8129" y1="242.211" x2="222.311" y2="104.333" gradientUnits="userSpaceOnUse">
      <stop stop-color="#0358A7"/>
      <stop offset="0.25" stop-color="#0084CD"/>
      <stop offset="0.5" stop-color="#00AFDF"/>
      <stop offset="0.75" stop-color="#00D9DD"/>
      <stop offset="1" stop-color="#32FFCE"/>
    </linearGradient>
  </defs>
</svg>